<?xml version="1.0" encoding="utf-8"?>
<!-- Generator: Adobe Illustrator 18.0.0, SVG Export Plug-In . SVG Version: 6.00 Build 0)  -->
<!DOCTYPE svg PUBLIC "-//W3C//DTD SVG 1.1//EN" "http://www.w3.org/Graphics/SVG/1.1/DTD/svg11.dtd">
<svg version="1.1" id="Layer_1" xmlns="http://www.w3.org/2000/svg" xmlns:xlink="http://www.w3.org/1999/xlink" x="0px" y="0px"
	 viewBox="0 0 507 600" enable-background="new 0 0 507 600" xml:space="preserve">
<g>
	<g>
		<g>
			<path d="M199,483.5c19-1.5,40.6,0.4,54.9,14.4c13.7,13.3,15.8,33.9,14.5,52c-0.9,17.3-9.2,35.6-25.6,43.3
				c-18.5,8.6-40.4,8.6-59.8,3.3c-17.3-4.7-30-20.3-32.6-37.8c-3-18.8-2.4-40,9-56C168.5,490.2,184.1,484.7,199,483.5z M202.4,506.5
				c-8.1,0.8-16.7,3.8-21.6,10.6c-5.7,7.7-6.6,17.7-6.4,26.9c0.3,8.8,2.1,18.3,8.4,24.8c6.7,6.8,16.8,8.8,26.1,8.6
				c9.5,0.2,19.9-2,26.5-9.3c6.4-7.2,7.7-17.3,7.9-26.5c-0.2-9.7-1.8-20.5-9.2-27.5C225.6,506.5,213.3,505.6,202.4,506.5z"/>
		</g>
		<path d="M0.3,484.8c11,0,22,0,33,0c10.2,25.6,20.3,51.2,30.5,76.7C74,536,84.1,510.4,94.3,484.8c10.8,0,21.6,0,32.5,0
			c0,37.8,0,75.5,0,113.2c-8.2,0-16.3,0-24.5,0c-0.1-24.8,0-49.5,0-74.2c-10.2,24.6-19.8,49.6-30,74.3c-6.4,0-12.8,0-19.1,0
			c-10.1-24.7-19.8-49.6-30-74.3c-0.1,24.8,0,49.5,0,74.3c-7.6,0-15.1,0-22.7,0C0.2,560.3,0.3,522.6,0.3,484.8z"/>
		<g>
			<path d="M293.5,484.8c21.8,0.4,43.8-1.3,65.4,1.8c11.3,1.8,23,6.5,29.6,16.3c8.2,12.3,8.8,27.9,8.7,42.2
				c-0.3,15.3-3.4,32.8-16.6,42.4c-13.9,9.8-31.7,10.4-48.1,10.5c-13,0-26,0-39,0C293.5,560.3,293.5,522.6,293.5,484.8z
				 M318.9,507.7c0.1,22.8,0,45.6,0,68.4c13.5-0.4,27.8,1.5,40.5-4c8.9-4,11.9-14.3,12.2-23.3c0.2-12.9,2.1-31.1-12.1-37.6
				C346.6,506.1,332.4,508,318.9,507.7z"/>
		</g>
		<path d="M422.1,484.8c28.3,0,56.6,0,84.9,0c0,7.6,0.1,15.2,0,22.8c-19.9,0.1-39.9-0.1-59.8,0.1c0.1,7.2,0,14.4,0,21.6
			c19.4,0.1,38.9,0,58.3,0c0,7.4,0,14.8,0,22.2c-19.5,0.1-38.9-0.1-58.4,0.1c0.1,8.1,0,16.3,0,24.5c19.9,0,39.8,0,59.8,0
			c0,7.3,0,14.6,0,21.9c-28.3,0-56.6,0-84.8,0C422,560.3,422.1,522.6,422.1,484.8z"/>
	</g>
	<g>
		<polygon points="126.7,76.3 0,152.6 126.7,228.9 		"/>
		<polygon points="126.7,228.9 0,305.3 126.7,381.6 		"/>
		<polygon points="0,0 126.7,76.3 0,152.6 		"/>
		<polygon points="0,152.6 126.7,228.9 0,305.3 		"/>
		<polygon points="126.7,76.3 253.5,152.6 126.7,228.9 		"/>
		<polygon points="0,305.3 126.7,381.6 0,457.9 		"/>
		<polygon points="380.3,76.3 507,152.6 380.3,228.9 		"/>
		<polygon points="380.3,228.9 507,305.3 380.3,381.6 		"/>
		<polygon points="507,0 380.3,76.3 507,152.6 		"/>
		<polygon points="507,152.6 380.3,228.9 507,305.3 		"/>
		<polygon points="380.3,76.3 253.5,152.6 380.3,228.9 		"/>
		<polygon points="253.5,152.6 126.7,228.9 253.5,305.3 380.3,228.9 		"/>
		<polygon points="507,305.3 380.3,381.6 507,457.9 		"/>
	</g>
</g>
</svg>
