<?xml version="1.0" encoding="utf-8"?>
<!-- Generator: Adobe Illustrator 16.0.0, SVG Export Plug-In . SVG Version: 6.00 Build 0)  -->
<!DOCTYPE svg PUBLIC "-//W3C//DTD SVG 1.1//EN" "http://www.w3.org/Graphics/SVG/1.1/DTD/svg11.dtd">
<svg version="1.1" id="Layer_1" xmlns="http://www.w3.org/2000/svg" xmlns:xlink="http://www.w3.org/1999/xlink" x="0px" y="0px"
	 width="433.731px" height="95.591px" viewBox="0 0 433.731 95.591" enable-background="new 0 0 433.731 95.591"
	 xml:space="preserve">
<g>
	<g>
		<polygon fill="#9AB69D" points="0,63.725 0,95.591 26.334,79.657 		"/>
		<polygon fill="#ACC8AB" points="26.334,47.797 0,63.725 26.334,79.657 		"/>
		<polygon fill="#BDD8B7" points="0,63.725 26.334,47.797 0,31.863 		"/>
		<polygon fill="#BDD8B7" points="26.334,15.93 26.334,47.797 52.664,31.863 		"/>
		<polygon fill="#9AB69D" points="0,0 0,31.863 26.334,15.93 		"/>
		<polygon fill="#9AB69D" points="26.334,47.797 52.664,63.725 79.001,47.797 52.664,31.863 		"/>
		<path fill="#C2DDBB" d="M0,95.591"/>
		<polygon fill="#9AB69D" points="105.329,0 79.001,15.93 105.329,31.863 		"/>
		<polygon fill="#ACC8AB" points="0,31.863 26.334,47.797 26.334,15.93 		"/>
		<polygon fill="#ACC8AB" points="79.001,15.93 79.001,47.797 105.329,31.863 		"/>
		<polygon fill="#BDD8B7" points="52.664,31.863 79.001,47.797 79.001,15.93 		"/>
		<polygon fill="#BDD8B7" points="79.001,47.797 105.329,63.725 105.329,31.863 		"/>
		<polygon fill="#9AB69D" points="79.001,79.657 105.329,95.591 105.329,63.725 		"/>
		<polygon fill="#ACC8AB" points="79.001,47.797 79.001,63.354 79.001,79.657 105.329,63.725 		"/>
	</g>
	<g>
		<path fill="#CC5728" d="M137.847,15.83h19.053l17.884,45.029l17.884-45.029h18.953v65.945h-14.243V37.724L179.68,81.775h-11.037
			L151.02,37.988v43.787h-13.173V15.83z"/>
		<path fill="#CC5728" d="M224.617,48.755c0-24.737,13.879-33.993,34.878-33.993c21.002,0,34.972,9.256,34.972,33.993
			c0,24.827-13.97,34.086-34.972,34.086C238.497,82.841,224.617,73.582,224.617,48.755z M279.696,49.026
			c0-12.906-5.073-20.915-20.201-20.915c-15.13,0-20.197,8.009-20.197,20.915c0,12.902,5.067,20.996,20.197,20.996
			C274.623,70.022,279.696,61.929,279.696,49.026z"/>
		<path fill="#CC5728" d="M309.147,15.83h23.677c25.976,0,36.741,6.767,36.741,32.925c0,25.72-11.118,33.021-37.099,33.021h-23.319
			V15.83z M333.263,69.047c17.98,0,21.627-5.435,21.627-20.292s-3.023-19.839-21.895-19.839h-9.254v40.131H333.263z"/>
		<path fill="#CC5728" d="M384.17,15.83h49.557v13.169h-34.968V41.82h34.086v12.724h-34.086v14.59h34.973V81.77l-49.561,0.006V15.83
			z"/>
	</g>
</g>
</svg>
